#!OML:ASF F:\VICON\USERDATA\INSTALL\rory7\rory7.ASF
:FULLY-SPECIFIED
:DEGREES
401
root 0.391817 18.8402 2.59418 -3.51262 -6.05478 1.99185
lowerback 5.17565 1.8475 -2.52204
upperback 1.47451 2.30602 -1.25388
thorax -1.4306 1.15429 -0.0208819
lowerneck -6.07715 -3.49366 -6.18009
upperneck 20.3665 -5.49207 7.4243
head 7.61275 -2.4604 3.01242
rclavicle 1.3331e-014 -2.56432e-014
rhumerus 3.13548 30.8437 -71.4641
rradius 127.488
rwrist -8.65229
rhand -36.1648 2.1598
rfingers 7.12502
rthumb -9.26878 -27.6165
lclavicle 1.3331e-014 -2.56432e-014
lhumerus -44.561 25.365 55.9354
lradius 16.7558
lwrist -17.5331
lhand -24.1142 33.14
lfingers 7.12502
lthumb 2.36704 63.1066
rfemur 6.21106 19.9604 16.9103
rtibia 10.5546
rfoot -12.444 -22.6443
rtoes -5.94602
lfemur 7.75502 -7.98335 -19.7839
ltibia 6.88957
lfoot -10.4864 18.2035
ltoes -4.35512
402
root 0.392032 18.8399 2.59418 -3.49588 -5.97917 1.9568
lowerback 5.15 1.8429 -2.45643
upperback 1.44667 2.30338 -1.27067
thorax -1.44164 1.15318 -0.0742444
lowerneck -5.94157 -3.50029 -6.15694
upperneck 20.241 -5.49679 7.39452
head 7.54594 -2.46752 2.99903
rclavicle -2.90474e-014 -1.03368e-014
rhumerus 3.69036 30.5976 -71.1747
rradius 127.699
rwrist -8.66433
rhand -36.0743 2.24134
rfingers 7.12502
rthumb -9.18147 -27.5388
lclavicle -2.90474e-014 -1.03368e-014
lhumerus -44.5543 25.121 56.1416
lradius 17.0854
lwrist -16.964
lhand -24.1967 32.9273
lfingers 7.12502
lthumb 2.28742 62.8948
rfemur 6.24153 19.9759 16.9579
rtibia 10.5281
rfoot -12.4805 -22.7088
rtoes -5.99456
lfemur 7.70118 -8.06224 -19.7411
ltibia 6.94209
lfoot -10.4932 18.2154
ltoes -4.47273
403
root 0.391466 18.8396 2.59344 -3.48529 -5.93172 1.91123
lowerback 5.15033 1.86148 -2.39701
upperback 1.43839 2.33075 -1.28716
thorax -1.44779 1.16687 -0.126283
lowerneck -5.87022 -3.53281 -6.15095
upperneck 20.0636 -5.53745 7.40766
head 7.47818 -2.48844 2.99818
rclavicle -5.61567e-015 2.50469e-014
rhumerus 4.28104 30.3012 -70.8336
rradius 127.965
rwrist -8.78515
rhand -35.8895 2.18957
rfingers 7.12502
rthumb -9.00321 -27.5983
lclavicle -5.61567e-015 2.50469e-014
lhumerus -44.3879 24.8169 56.4579
lradius 17.3717
lwrist -16.4127
lhand -24.1878 33.4701
lfingers 7.12502
lthumb 2.29602 63.4374
rfemur 6.25878 19.9789 17.0158
rtibia 10.5196
rfoot -12.5149 -22.718
rtoes -6.05597
lfemur 7.67007 -8.11431 -19.681
ltibia 6.96664
lfoot -10.5049 18.2123
ltoes -4.44848
404
root 0.390715 18.8399 2.59307 -3.48046 -5.89177 1.9398
lowerback 5.09646 1.89397 -2.43602
upperback 1.4735 2.37449 -1.30554
thorax -1.38314 1.1881 -0.123491
lowerneck -5.84462 -3.55319 -6.21559
upperneck 19.8963 -5.56359 7.48889
head 7.42476 -2.50075 3.03258
rclavicle -1.54182e-014 1.74931e-014
rhumerus 4.90117 29.9752 -70.4522
rradius 128.224
rwrist -8.87211
rhand -35.6558 2.26816
rfingers 7.12502
rthumb -8.77761 -27.5293
lclavicle -1.54182e-014 1.74931e-014
lhumerus -44.1951 24.6323 56.7534
lradius 17.6745
lwrist -16.0152
lhand -24.0337 33.5886
lfingers 7.12502
lthumb 2.44477 63.5543
rfemur 6.25737 19.941 16.9808
rtibia 10.5171
rfoot -12.54 -22.6866
rtoes -5.98789
lfemur 7.65059 -8.15241 -19.711
ltibia 6.97207
lfoot -10.4749 18.2185
ltoes -4.40826
405
root 0.390875 18.8409 2.59054 -3.47994 -5.81016 2.03347
lowerback 5.09565 1.91099 -2.53275
upperback 1.44566 2.39109 -1.33177
thorax -1.41434 1.19691 -0.0981159
lowerneck -5.67041 -3.5572 -6.28503
upperneck 19.741 -5.56659 7.53105
head 7.34595 -2.50893 3.05934
rclavicle 2.88238e-015 -2.38542e-015
rhumerus 5.36284 29.7814 -70.1357
rradius 128.453
rwrist -8.71958
rhand -35.583 2.33755
rfingers 7.12502
rthumb -8.70737 -27.4629
lclavicle 2.88238e-015 -2.38542e-015
lhumerus -44.1733 24.2437 57.1225
lradius 18.1013
lwrist -15.3599
lhand -23.9837 33.1074
lfingers 7.12502
lthumb 2.49313 63.0726
rfemur 6.25681 19.919 16.8769
rtibia 10.5182
rfoot -12.5802 -22.7427
rtoes -5.84138
lfemur 7.61079 -8.2266 -19.8221
ltibia 6.98595
lfoot -10.4328 18.2532
ltoes -4.59649
